<?xml version="1.0" encoding="utf-8"?>
<!-- Generator: Adobe Illustrator 23.1.0, SVG Export Plug-In . SVG Version: 6.00 Build 0)  -->
<svg version="1.1" xmlns="http://www.w3.org/2000/svg" xmlns:xlink="http://www.w3.org/1999/xlink" x="0px" y="0px"
	 viewBox="0 0 750 500" style="enable-background:new 0 0 750 500;" xml:space="preserve">
<style type="text/css">
	.st0{fill:url(#SVGID_1_);}
	.st1{clip-path:url(#SVGID_3_);}
	.st2{fill:url(#SVGID_4_);}
	.st3{fill:url(#SVGID_5_);}
	.st4{fill:url(#SVGID_6_);}
	.st5{fill:url(#SVGID_7_);}
	.st6{fill:url(#SVGID_8_);}
	.st7{fill:url(#SVGID_9_);}
	.st8{fill:url(#SVGID_10_);}
	.st9{fill:url(#SVGID_11_);}
	.st10{fill:url(#SVGID_12_);}
	.st11{fill:url(#SVGID_13_);}
	.st12{fill:url(#SVGID_14_);}
	.st13{fill:url(#SVGID_15_);}
	.st14{fill:url(#SVGID_16_);}
	.st15{opacity:0.2;fill:#4E2A67;}
	.st16{fill:url(#SVGID_17_);}
	.st17{fill:url(#SVGID_18_);}
	.st18{fill:url(#SVGID_19_);}
	.st19{fill:url(#SVGID_20_);}
	.st20{fill:url(#SVGID_21_);}
	.st21{fill:url(#SVGID_22_);}
	.st22{fill:url(#SVGID_23_);}
	.st23{fill:url(#SVGID_24_);}
	.st24{fill:url(#SVGID_25_);}
	.st25{fill:url(#SVGID_26_);}
	.st26{fill:url(#SVGID_27_);}
	.st27{fill:url(#SVGID_28_);}
	.st28{fill:url(#SVGID_29_);}
	.st29{fill:url(#SVGID_30_);}
	.st30{fill:url(#SVGID_31_);}
	.st31{fill:url(#SVGID_32_);}
	.st32{fill:url(#SVGID_33_);}
	.st33{fill:url(#SVGID_34_);}
	.st34{fill:url(#SVGID_35_);}
	.st35{fill:url(#SVGID_36_);}
	.st36{fill:url(#SVGID_37_);}
	.st37{fill:url(#SVGID_38_);}
	.st38{fill:url(#SVGID_39_);}
	.st39{fill:url(#SVGID_40_);}
	.st40{fill:url(#SVGID_41_);}
	.st41{fill:url(#SVGID_42_);}
	.st42{fill:url(#SVGID_43_);}
	.st43{fill:url(#SVGID_44_);}
	.st44{fill:url(#SVGID_45_);}
	.st45{fill:url(#SVGID_46_);}
	.st46{fill:url(#SVGID_47_);}
	.st47{fill:url(#SVGID_48_);}
	.st48{fill:url(#SVGID_49_);}
	.st49{fill:url(#SVGID_50_);}
	.st50{fill:url(#SVGID_51_);}
	.st51{fill:url(#SVGID_52_);}
	.st52{fill:url(#SVGID_53_);}
	.st53{fill:url(#SVGID_54_);}
	.st54{fill:url(#SVGID_55_);}
	.st55{fill:url(#SVGID_56_);}
	.st56{fill:url(#SVGID_57_);}
	.st57{fill:url(#SVGID_58_);}
	.st58{fill:url(#SVGID_59_);}
	.st59{fill:url(#SVGID_60_);}
	.st60{fill:url(#SVGID_61_);}
	.st61{fill:url(#SVGID_62_);}
	.st62{fill:url(#SVGID_63_);}
	.st63{fill:url(#SVGID_64_);}
	.st64{fill:url(#SVGID_65_);}
	.st65{fill:url(#SVGID_66_);}
	.st66{fill:url(#SVGID_67_);}
	.st67{fill:#FFFFFF;}
</style>
<g id="BACKGROUND">
	<linearGradient id="SVGID_1_" gradientUnits="userSpaceOnUse" x1="705.1233" y1="36.674" x2="22.749" y2="477.6235">
		<stop  offset="0" style="stop-color:#3E1A4E"/>
		<stop  offset="1" style="stop-color:#6B085B"/>
	</linearGradient>
	<rect x="0" class="st0" width="750" height="500"/>
</g>
<g id="OBJECTS">
	<g>
		<defs>
			<rect id="SVGID_2_" x="0" width="750" height="500"/>
		</defs>
		<clipPath id="SVGID_3_">
			<use xlink:href="#SVGID_2_"  style="overflow:visible;"/>
		</clipPath>
		<g class="st1">
			<g>
				<linearGradient id="SVGID_4_" gradientUnits="userSpaceOnUse" x1="-65.9478" y1="408.4621" x2="703.294" y2="408.4621">
					<stop  offset="0" style="stop-color:#AA2B97;stop-opacity:0.3"/>
					<stop  offset="1" style="stop-color:#5C2BC8;stop-opacity:0.1"/>
				</linearGradient>
				<path class="st2" d="M-36.3,241.8c30-16.9,69.2-7.7,96.9,12.7c27.7,20.4,46.8,50.2,66.4,78.5c19.5,28.4,41.2,56.9,71.7,73
					c29.6,15.6,64.6,17.7,97.8,14.3c33.3-3.4,65.8-11.9,98.9-16.4c17.8-2.4,36-3.6,53.5,0.2c60.1,13.3,93.9,80.9,151.8,101.7
					c27.3,9.8,57.5,8.3,85.4,16.3c9,2.6,19.6,9.9,16.5,18.8c-0.9,2.7-3.1,4.8-5.2,6.6c-16.9,14.1-40.7,17.1-62.5,14
					c-21.8-3.1-42.4-11.4-63.5-17.7c-66.9-20-139.9-18.7-206,3.6C317,563.8,268.3,591.5,218,582c-29-5.5-55.1-23.3-84.6-25.4
					c-21.8-1.6-43.2,5.6-64.9,7.2C8.2,568.3-52,524.2-65.9,465.4"/>
				<linearGradient id="SVGID_5_" gradientUnits="userSpaceOnUse" x1="-6.6244" y1="170.5166" x2="811.8688" y2="170.5166">
					<stop  offset="0" style="stop-color:#AA2B97;stop-opacity:0.3"/>
					<stop  offset="1" style="stop-color:#5C2BC8;stop-opacity:0.1"/>
				</linearGradient>
				<path class="st3" d="M801.5,364.3c-5.2-2.1-11.1-1-16.6,0c-32.2,6.2-64.6,12.9-97.4,13.1c-32.8,0.2-66.6-6.6-93.5-25.4
					c-62-43.1-74-137.4-139.3-175.3c-38.8-22.6-88-19.1-130.7-5.2c-33.6,10.9-66,27.9-101.2,29.7c-23.7,1.2-52.3-9.7-55.2-33.2
					c-1.2-9.7,2.5-19.3,6.9-28c20.1-39.3,57.3-68.4,73.9-109.4c15-37.1,10.2-81.5-12.2-114.5c-5.5-8.1-15.2-16.4-24.1-12.3
					c-7.9,3.6-9.1,14.2-8.5,22.9c1.8,25.9,9.3,51.4,8.6,77.3c-0.8,30.7-13.8,60.9-35.4,82.7c-10.9,11-27,20.3-41.4,14.4
					c-15.4-6.5-19.4-27.3-14.8-43.4s14.9-30,20.3-45.9c12.2-36.2-6.1-79.2-39.1-98.5c-33-19.3-77-15.4-108.4,6.5l30.3,26.8
					c32,3.5,56,32.8,65.2,63.6c9.2,30.8,7.3,63.7,8.8,95.9c1.5,32.2,7.4,66.1,28.8,90.2c17,19.2,42.5,30.3,56.3,51.9
					c14.1,22.2,13.2,51.5,27.1,73.9c15.6,25.1,47.1,36.4,76.6,36.3c29.5-0.2,58.1-9.8,86.5-18c55.7-16,120.2-25.4,167.7,7.8
					c26.1,18.2,43.2,47,68.6,66.2c50.4,38.1,124.3,30.4,178.5-1.9c9-5.4,18.1-11.8,22.3-21.4C814.2,381.5,811.3,368.2,801.5,364.3z
					 M448.8,240.5c-1,12.7-11.1,23.2-22.5,29c-11.4,5.8-24.2,8.1-36.4,11.7c-27.1,8-51.6,22.8-77.4,34.1
					c-14.7,6.4-31.9,11.7-46.2,4.6c-15.1-7.5-21.2-26.7-19.4-43.5c3-27.5,22.6-51,46.2-65.5c40.6-25,97.9-39.4,137.5-4.9
					C440.7,214.9,449.8,227,448.8,240.5z"/>
				<linearGradient id="SVGID_6_" gradientUnits="userSpaceOnUse" x1="402.2022" y1="72.8484" x2="814.8305" y2="72.8484">
					<stop  offset="0" style="stop-color:#AA2B97;stop-opacity:0.3"/>
					<stop  offset="1" style="stop-color:#5C2BC8;stop-opacity:0.1"/>
				</linearGradient>
				<path class="st4" d="M402.2-57c31.5-0.4,63,11.2,86.8,31.9c23.8,20.7,39.6,50.3,43.5,81.6c2.1,17,1.4,35.8,11.9,49.3
					c9,11.5,24.1,16.2,38.4,18.8c14.4,2.6,29.4,3.9,42.2,10.9c18.1,9.9,28.7,29.9,33.7,49.9c3,12,4.5,24.7,10.5,35.5
					c11.5,20.9,37,30,60.8,31.9c15.9,1.2,32.3-0.1,47-6.2c14.7-6.1,27.7-17.4,33.7-32.2c5.2-12.8,4.9-27.1,2.6-40.7
					c-1.8-11.1-5.3-22.6-13.6-30.3c-5.9-5.4-13.7-8.3-21.5-10.4c-40-10.6-84.8-2.5-121.7-21.4c-7.1-3.7-14.3-9-16.1-16.8
					C638,83.9,647.1,74,655,66c22.6-23,42.5-52.1,42.2-84.3c-0.3-27.4-15.9-53.4-38.2-69.2c-22.4-15.8-50.8-21.8-78.1-19.6"/>
				<linearGradient id="SVGID_7_" gradientUnits="userSpaceOnUse" x1="198.7689" y1="377.3938" x2="199.9445" y2="510.2451">
					<stop  offset="0" style="stop-color:#AA2B97;stop-opacity:0.3"/>
					<stop  offset="1" style="stop-color:#5C2BC8;stop-opacity:0.1"/>
				</linearGradient>
				<path class="st5" d="M-129.9,362.3c19-24.9,48.5-41.5,79.6-44.9c31.1-3.4,63.5,6.4,87.5,26.6C52,356.4,64,372.7,81.4,381.1
					c20.6,9.9,45.5,6.8,66.5,15.8c20.3,8.7,34.3,27.2,51,41.6c27.9,24,65.1,36.8,101.8,35c28.3-1.3,55.7-10.9,84-13.2
					c33.7-2.7,68.2,5.4,97.3,22.8c28.7,17.2,53.6,49.5,45.3,81.9c-13.2-14.7-36.6-12.3-55.7-7c-47.9,13.2-92.4,36.4-138.8,54.2
					c-69.4,26.7-143.3,41.5-217.6,43.6c-28.6,0.8-57.6-0.3-84.9-8.6c-40.3-12.2-74.5-39.1-105.1-68.1"/>
				<linearGradient id="SVGID_8_" gradientUnits="userSpaceOnUse" x1="561.7608" y1="72.7803" x2="602.9094" y2="-51.8415">
					<stop  offset="0" style="stop-color:#AA2B97;stop-opacity:0.3"/>
					<stop  offset="1" style="stop-color:#5C2BC8;stop-opacity:0.1"/>
				</linearGradient>
				<path class="st6" d="M515.8-44.3c15.7-2.7,30.7,10.5,35.6,25.7c5,15.2,2.5,31.7-0.1,47.4S546,61,550.8,76.3
					c4.7,15.3,19.2,28.8,35.1,26.6c12.8-1.7,22.2-12.6,30.3-22.7c10-12.5,20-24.9,30-37.4c10.7-13.3,21.7-27.5,23.9-44.4
					c3.3-26.3-15.6-49.7-33.4-69.5"/>
				<linearGradient id="SVGID_9_" gradientUnits="userSpaceOnUse" x1="736.7329" y1="218.4828" x2="756.4487" y2="158.7722">
					<stop  offset="0" style="stop-color:#AA2B97;stop-opacity:0.3"/>
					<stop  offset="1" style="stop-color:#5C2BC8;stop-opacity:0.1"/>
				</linearGradient>
				<path class="st7" d="M787.1,165.2c-8.8-9.5-19.1-18.8-31.9-20.8c-8.3-1.3-16.8,0.7-24.8,3.4c-7,2.4-13.9,5.5-19.2,10.7
					c-10,9.8-12.2,25.8-8.1,39.3c4,13.1,13.7,24.5,26.3,30c12.5,5.5,27.8,4.9,39.5-2.3c12.8-7.8,20.1-21.9,26.3-35.5"/>
			</g>
			<g>
				<g>
					<linearGradient id="SVGID_10_" gradientUnits="userSpaceOnUse" x1="23.8017" y1="535.0884" x2="77.0077" y2="399.4135">
						<stop  offset="0" style="stop-color:#83BD67"/>
						<stop  offset="1" style="stop-color:#438F8D"/>
					</linearGradient>
					<path class="st8" d="M152.1,509.1c0,3.1-0.1,6.2-0.4,9.2c-0.3,4.1-0.8,8.2-1.6,12.2c-1.1,5.8-2.6,11.5-4.5,17
						c-2.2,6.4-4.9,12.6-8.2,18.4c-20.1,36.5-58.9,61.3-103.5,61.3c-6.2,0-12.2-0.5-18.1-1.4c-6.7-1-13.3-2.6-19.6-4.8
						c-9.5-3.2-18.5-7.6-26.8-13c-4.1-2.7-7.9-5.5-11.6-8.7c-6.3-5.3-12-11.3-17.1-17.8c-2.7-3.4-5.2-7-7.4-10.7
						c-4.1-6.7-7.5-13.7-10.3-21.2c-1.5-4.1-2.8-8.3-3.8-12.5c-1.9-7.9-3.1-16.2-3.3-24.6c0-1.1,0-2.2,0-3.4c0-3.8,0.2-7.6,0.5-11.3
						c1-10.3,3.3-20.2,6.7-29.5c2.4-6.5,5.4-12.8,8.9-18.8c17.5-30,47.9-51.5,83.6-57.1c6-0.9,12.1-1.4,18.4-1.4
						c5.1,0,10.1,0.3,15,0.9c7,0.9,13.8,2.4,20.3,4.4c9.8,3.1,19,7.3,27.5,12.7c4.2,2.6,8.1,5.5,11.9,8.6
						c6.4,5.2,12.3,11.1,17.5,17.6c2.7,3.4,5.3,6.9,7.6,10.6c4.2,6.6,7.7,13.6,10.6,21c1.6,4.1,2.9,8.2,4,12.5
						c2,7.9,3.3,16,3.7,24.4C152,505.5,152.1,507.3,152.1,509.1z"/>
					<g>
						<linearGradient id="SVGID_11_" gradientUnits="userSpaceOnUse" x1="-8.9907" y1="445.5734" x2="18.1021" y2="376.4869">
							<stop  offset="1.394260e-02" style="stop-color:#BDE350"/>
							<stop  offset="1" style="stop-color:#DAFFAF"/>
						</linearGradient>
						<path class="st9" d="M69.3,396.4l-146.1,71.9c2.4-6.5,5.4-12.8,8.9-18.8L49,392C55.9,392.9,62.7,394.4,69.3,396.4z"/>
						<linearGradient id="SVGID_12_" gradientUnits="userSpaceOnUse" x1="3.6896" y1="480.3166" x2="40.2331" y2="387.131">
							<stop  offset="1.394260e-02" style="stop-color:#BDE350"/>
							<stop  offset="1" style="stop-color:#DAFFAF"/>
						</linearGradient>
						<path class="st10" d="M108.6,417.6L-84,512.5c0-1.1,0-2.2,0-3.4c0-3.8,0.2-7.6,0.5-11.3l180.3-88.7
							C100.9,411.7,104.9,414.5,108.6,417.6z"/>
						<linearGradient id="SVGID_13_" gradientUnits="userSpaceOnUse" x1="18.1325" y1="512.8194" x2="58.8103" y2="409.0912">
							<stop  offset="1.394260e-02" style="stop-color:#BDE350"/>
							<stop  offset="1" style="stop-color:#DAFFAF"/>
						</linearGradient>
						<path class="st11" d="M133.7,445.9L-77,549.6c-1.5-4.1-2.8-8.3-3.8-12.5l206.9-101.8C128.8,438.7,131.4,442.2,133.7,445.9z"/>
						<linearGradient id="SVGID_14_" gradientUnits="userSpaceOnUse" x1="33.503" y1="543.6594" x2="74.2743" y2="439.6927">
							<stop  offset="1.394260e-02" style="stop-color:#BDE350"/>
							<stop  offset="1" style="stop-color:#DAFFAF"/>
						</linearGradient>
						<path class="st12" d="M148.3,479.4L-59.3,581.5c-2.7-3.4-5.2-7-7.4-10.7l211-103.9C145.9,471,147.2,475.1,148.3,479.4z"/>
						<linearGradient id="SVGID_15_" gradientUnits="userSpaceOnUse" x1="49.4998" y1="572.2641" x2="86.36" y2="478.2708">
							<stop  offset="1.394260e-02" style="stop-color:#BDE350"/>
							<stop  offset="1" style="stop-color:#DAFFAF"/>
						</linearGradient>
						<path class="st13" d="M152.1,509.1c0,3.1-0.1,6.2-0.4,9.2L-30.5,608c-4.1-2.7-7.9-5.5-11.6-8.7l194.1-95.5
							C152,505.5,152.1,507.3,152.1,509.1z"/>
						<linearGradient id="SVGID_16_" gradientUnits="userSpaceOnUse" x1="65.7199" y1="597.813" x2="93.4267" y2="527.1607">
							<stop  offset="1.394260e-02" style="stop-color:#BDE350"/>
							<stop  offset="1" style="stop-color:#DAFFAF"/>
						</linearGradient>
						<path class="st14" d="M145.7,547.5c-2.2,6.4-4.9,12.6-8.2,18.4L15.8,625.8c-6.7-1-13.3-2.6-19.6-4.8L145.7,547.5z"/>
					</g>
				</g>
				<path class="st15" d="M150.1,530.5c-1.1,5.8-2.6,11.5-4.5,17c-2.2,6.4-4.9,12.6-8.2,18.4c-20.1,36.5-58.9,61.3-103.5,61.3
					c-6.2,0-12.2-0.5-18.1-1.4c-6.7-1-13.3-2.6-19.6-4.8c-9.5-3.2-18.5-7.6-26.8-13c-4.1-2.7-7.9-5.5-11.6-8.7
					c-6.3-5.3-12-11.3-17.1-17.8c-2.7-3.4-5.2-7-7.4-10.7c-4.1-6.7-7.5-13.7-10.3-21.2c-1.5-4.1-2.8-8.3-3.8-12.5
					c-1.9-7.9-3.1-16.2-3.3-24.6c0-1.1,0-2.2,0-3.4c0-3.8,0.2-7.6,0.5-11.3c1-10.3,3.3-20.2,6.7-29.5c2.4-6.5,5.4-12.8,8.9-18.8
					c17.5-30,47.9-51.5,83.6-57.1C12.5,428.6,21.4,507.1,150.1,530.5z"/>
				<linearGradient id="SVGID_17_" gradientUnits="userSpaceOnUse" x1="59.234" y1="427.2" x2="104.1944" y2="427.2">
					<stop  offset="1.394260e-02" style="stop-color:#BDE350"/>
					<stop  offset="1" style="stop-color:#DAFFAF"/>
				</linearGradient>
				<path class="st16" d="M103.1,438.8c-3.8,7.1-16.5,7.6-28.3,1.2s-18.3-17.3-14.5-24.3c3.8-7.1,16.5-7.6,28.3-1.2
					C100.4,420.8,106.9,431.7,103.1,438.8z"/>
			</g>
			<g>
				<g>
					<linearGradient id="SVGID_18_" gradientUnits="userSpaceOnUse" x1="179.0942" y1="442.3154" x2="198.3398" y2="384.0284">
						<stop  offset="1.450340e-02" style="stop-color:#9DD0F3"/>
						<stop  offset="1" style="stop-color:#877DE4"/>
					</linearGradient>
					<path class="st17" d="M232,412v0.5c0,1.6-0.1,3.1-0.3,4.7c-0.3,2.9-1,5.6-1.8,8.3c-0.5,1.5-1.1,3-1.7,4.4
						c-1.3,2.8-2.8,5.4-4.6,7.8c-1.1,1.4-2.2,2.8-3.5,4.1c-2.6,2.7-5.5,5-8.7,7c-2.2,1.3-4.5,2.5-6.9,3.4c-3.2,1.3-6.7,2.1-10.2,2.5
						c-1.7,0.2-3.4,0.3-5.2,0.3c-12.2,0-23.3-5.1-31.1-13.3c0,0,0,0,0,0c-1.1-1.2-2.2-2.4-3.1-3.7c-2.2-2.9-4.1-6.2-5.5-9.7
						c-0.7-1.6-1.2-3.3-1.7-5.1c-0.8-2.9-1.3-5.8-1.4-8.9c0-0.8-0.1-1.5-0.1-2.3c0-0.8,0-1.6,0.1-2.4c0.2-2.9,0.6-5.7,1.3-8.4
						c0.4-1.5,0.9-3,1.4-4.5c1.1-2.8,2.4-5.4,4-7.9c0.9-1.5,2-2.9,3.1-4.2c2.2-2.7,4.8-5.1,7.5-7.2c1.8-1.4,3.8-2.6,5.8-3.6
						c3-1.5,6.1-2.8,9.5-3.6c3.3-0.8,6.7-1.2,10.3-1.2c13.2,0,25.1,6,32.9,15.4c1.3,1.5,2.4,3.1,3.5,4.8c1.8,2.9,3.3,6.1,4.4,9.5
						c0.5,1.6,1,3.3,1.3,5C231.7,406.5,232,409.2,232,412z"/>
					<g>
						<linearGradient id="SVGID_19_" gradientUnits="userSpaceOnUse" x1="194.4807" y1="383.5604" x2="197.8512" y2="374.9656">
							<stop  offset="1.394260e-02" style="stop-color:#BDE350"/>
							<stop  offset="1" style="stop-color:#DAFFAF"/>
						</linearGradient>
						<path class="st18" d="M225.5,389.3l-62-11.8c1.8-1.4,3.8-2.6,5.8-3.6l50.2,9.5c0.8,0.4,1.7,0.7,2.5,1.1
							C223.3,386,224.5,387.7,225.5,389.3z"/>
						<linearGradient id="SVGID_20_" gradientUnits="userSpaceOnUse" x1="192.0155" y1="396.4816" x2="196.2751" y2="385.6196">
							<stop  offset="1.394260e-02" style="stop-color:#BDE350"/>
							<stop  offset="1" style="stop-color:#DAFFAF"/>
						</linearGradient>
						<path class="st19" d="M231.2,403.8l-78.3-14.9c0.9-1.5,2-2.9,3.1-4.2l73.9,14.1C230.4,400.4,230.9,402.1,231.2,403.8z"/>
						<linearGradient id="SVGID_21_" gradientUnits="userSpaceOnUse" x1="189.4203" y1="409.3297" x2="193.9972" y2="397.6585">
							<stop  offset="1.394260e-02" style="stop-color:#BDE350"/>
							<stop  offset="1" style="stop-color:#DAFFAF"/>
						</linearGradient>
						<path class="st20" d="M232,412.5c0,1.6-0.1,3.1-0.3,4.7l-84.2-16c0.4-1.5,0.9-3,1.4-4.5L232,412.5z"/>
						<linearGradient id="SVGID_22_" gradientUnits="userSpaceOnUse" x1="186.4083" y1="421.8345" x2="190.9489" y2="410.256">
							<stop  offset="1.394260e-02" style="stop-color:#BDE350"/>
							<stop  offset="1" style="stop-color:#DAFFAF"/>
						</linearGradient>
						<path class="st21" d="M229.9,425.5c-0.5,1.5-1.1,3-1.7,4.4l-81.9-15.5c0-0.8-0.1-1.5-0.1-2.3c0-0.8,0-1.6,0.1-2.4L229.9,425.5
							z"/>
						<linearGradient id="SVGID_23_" gradientUnits="userSpaceOnUse" x1="184.0535" y1="434.3685" x2="188.1947" y2="423.8083">
							<stop  offset="1.394260e-02" style="stop-color:#BDE350"/>
							<stop  offset="1" style="stop-color:#DAFFAF"/>
						</linearGradient>
						<path class="st22" d="M223.5,437.6c-1.1,1.4-2.2,2.8-3.5,4.1l-70.7-13.4c-0.7-1.6-1.2-3.3-1.7-5.1L223.5,437.6z"/>
						<linearGradient id="SVGID_24_" gradientUnits="userSpaceOnUse" x1="182.0894" y1="446.0417" x2="185.0876" y2="438.3965">
							<stop  offset="1.394260e-02" style="stop-color:#BDE350"/>
							<stop  offset="1" style="stop-color:#DAFFAF"/>
						</linearGradient>
						<path class="st23" d="M211.4,448.7c-2.2,1.3-4.5,2.5-6.9,3.4l-40.4-7.7c-2.1-0.9-4.1-1.9-6.1-2.8c0,0,0,0,0,0
							c-1.1-1.2-2.2-2.4-3.1-3.7L211.4,448.7z"/>
					</g>
				</g>
				<path class="st15" d="M194.3,454.7c-1.7,0.2-3.4,0.3-5.2,0.3c-12.2,0-23.3-5.1-31.1-13.3c0,0,0,0,0,0c-1.1-1.2-2.2-2.4-3.1-3.7
					c-2.2-2.9-4.1-6.2-5.5-9.7c-0.7-1.6-1.2-3.3-1.7-5.1c-0.8-2.9-1.3-5.8-1.4-8.9c0-0.8-0.1-1.5-0.1-2.3c0-0.8,0-1.6,0.1-2.4
					c0.2-2.9,0.6-5.7,1.3-8.4c0.4-1.5,0.9-3,1.4-4.5c1.1-2.8,2.4-5.4,4-7.9c0.9-1.5,2-2.9,3.1-4.2c2.2-2.7,4.8-5.1,7.5-7.2
					c1.8-1.4,3.8-2.6,5.8-3.6c3-1.5,6.1-2.8,9.5-3.6C169.8,388.5,158.7,424.8,194.3,454.7z"/>
				<linearGradient id="SVGID_25_" gradientUnits="userSpaceOnUse" x1="194.0599" y1="381.635" x2="211.1366" y2="381.635">
					<stop  offset="1.394260e-02" style="stop-color:#BDE350"/>
					<stop  offset="1" style="stop-color:#DAFFAF"/>
				</linearGradient>
				<path class="st24" d="M210.7,386c-1.4,2.7-6.3,2.9-10.7,0.5c-4.5-2.4-6.9-6.6-5.5-9.2c1.4-2.7,6.3-2.9,10.7-0.5
					C209.7,379.2,212.2,383.3,210.7,386z"/>
			</g>
			<g>
				<g>
					
						<linearGradient id="SVGID_26_" gradientUnits="userSpaceOnUse" x1="120.2848" y1="196.7347" x2="142.4263" y2="129.6776" gradientTransform="matrix(0.9798 0.2001 -0.2001 0.9798 31.7576 -14.497)">
						<stop  offset="0" style="stop-color:#FF9249"/>
						<stop  offset="1" style="stop-color:#FFDB49"/>
					</linearGradient>
					<path class="st25" d="M176.9,180.4c-5.2,25.5-29.1,42.3-54.5,39.1c-1.2-0.2-2.5-0.4-3.8-0.6c-26.7-5.5-44-31.5-38.5-58.3
						c3.5-17.2,15.6-30.5,30.9-36.3c8.4-3.2,17.9-4.1,27.3-2.2C165.1,127.6,182.3,153.7,176.9,180.4z"/>
					<linearGradient id="SVGID_27_" gradientUnits="userSpaceOnUse" x1="127.2971" y1="145.4507" x2="165.0411" y2="145.4507">
						<stop  offset="1.394260e-02" style="stop-color:#BDE350"/>
						<stop  offset="1" style="stop-color:#DAFFAF"/>
					</linearGradient>
					<path class="st26" d="M164.1,155.2c-3.2,5.9-13.8,6.4-23.8,1c-9.9-5.4-15.4-14.5-12.2-20.4c3.2-5.9,13.8-6.4,23.8-1
						C161.9,140.1,167.3,149.2,164.1,155.2z"/>
					<path class="st15" d="M122.4,219.5c-1.2-0.2-2.5-0.4-3.8-0.6c-26.7-5.5-44-31.5-38.5-58.3c3.5-17.2,15.6-30.5,30.9-36.3
						C102.6,140.3,87.1,181.1,122.4,219.5z"/>
					<linearGradient id="SVGID_28_" gradientUnits="userSpaceOnUse" x1="41.8138" y1="178.1827" x2="215.1434" y2="178.1827">
						<stop  offset="0" style="stop-color:#FF9249"/>
						<stop  offset="1" style="stop-color:#FFDB49"/>
					</linearGradient>
					<path class="st27" d="M186.3,203.8c-4.5,0-9.5-0.2-14.9-0.6c-14.1-1-30.2-3.3-46.6-6.6c-16.4-3.3-32.1-7.6-45.5-12.2
						C70,181.2,40,170,41.9,160.5c0.7-3.4,6.2-8.8,35.6-7.7l0,1c-20.6-0.8-33.5,1.8-34.6,7c-1.2,5.8,12.9,14.5,36.7,22.7
						c13.3,4.6,29,8.8,45.4,12.1c16.3,3.3,32.4,5.6,46.5,6.6c24.8,1.8,41.2-0.8,42.7-6.5c1.1-4.3-12.4-11-22.3-15.8
						c-1.2-0.6-2.4-1.2-3.6-1.8l0.4-0.9c1.1,0.6,2.3,1.2,3.5,1.8c11.3,5.6,24.1,11.9,22.8,17C213.7,201,203.4,203.8,186.3,203.8z"/>
					
						<linearGradient id="SVGID_29_" gradientUnits="userSpaceOnUse" x1="43.9218" y1="163.328" x2="219.6414" y2="163.328" gradientTransform="matrix(0.9798 0.2001 -0.2001 0.9798 31.7576 -14.497)">
						<stop  offset="0" style="stop-color:#D52453"/>
						<stop  offset="1" style="stop-color:#9D159A"/>
					</linearGradient>
					<path class="st28" d="M177.5,164.8c0.2,1.6,0.3,3.2,0.3,4.8c0,2.1-0.1,4.3-0.3,6.5c10.3,3,17.4,5.7,19.6,7.4
						c0.5,0.4,0.8,0.8,0.7,1.2c-0.3,1.7-8.8,1.5-22.1-0.1c-12.7-1.5-29.8-4.4-48.5-8.2c-18.7-3.8-35.6-7.9-47.8-11.5
						c-12.9-3.8-20.7-6.9-20.4-8.6c0.3-1.7,8.8-1.5,22.1,0.1c0.8-2.6,1.7-5,2.9-7.4c0.5-1,1-2,1.6-3c-24.8-1.8-41.9,0.6-43.2,6.9
						c-1.3,6.4,13.6,15.2,37,23.3c12.9,4.5,28.5,8.7,45.4,12.2c16.9,3.5,32.9,5.7,46.5,6.6c24.8,1.8,41.9-0.6,43.2-6.9
						C215.9,181.7,201,172.9,177.5,164.8z"/>
				</g>
				<path class="st15" d="M84,149.1c-1.1,2.3-2.1,4.8-2.9,7.4c-13.3-1.6-21.7-1.7-22.1-0.1C60.7,147.9,77.1,148.5,84,149.1z"/>
				<path class="st15" d="M197.2,183.5c-2.2-1.8-9.3-4.4-19.6-7.4c0.2-2.2,0.4-4.3,0.3-6.5C189.7,174.1,195.3,180.9,197.2,183.5z"/>
			</g>
			<g>
				
					<linearGradient id="SVGID_30_" gradientUnits="userSpaceOnUse" x1="575.6293" y1="274.7171" x2="575.6293" y2="165.9124" gradientTransform="matrix(-0.7071 0.7071 -0.7071 -0.7071 1139.4491 -28.4469)">
					<stop  offset="0" style="stop-color:#AA2B97;stop-opacity:0"/>
					<stop  offset="0.4774" style="stop-color:#AA2B97;stop-opacity:0.3"/>
					<stop  offset="1" style="stop-color:#EBDE50;stop-opacity:0.5"/>
				</linearGradient>
				<path class="st29" d="M534.8,180.9L534.8,180.9c2.3-2.3,6.1-2.3,8.5,0l73.1,73.1c2.3,2.3,2.3,6.1,0,8.5l0,0
					c-2.3,2.3-6.1,2.3-8.5,0l-73.1-73.1C532.4,187.1,532.4,183.3,534.8,180.9z"/>
				
					<linearGradient id="SVGID_31_" gradientUnits="userSpaceOnUse" x1="575.6263" y1="175.4024" x2="575.6263" y2="165.5106" gradientTransform="matrix(-0.7071 0.7071 -0.7071 -0.7071 1139.4491 -28.4469)">
					<stop  offset="0" style="stop-color:#FF9249"/>
					<stop  offset="1" style="stop-color:#FFDB49"/>
				</linearGradient>
				<path class="st30" d="M608.1,261.7c-2-2-2-5.4,0-7.4c2.1-2.1,5.4-2.1,7.4,0c0.5,0.5,0.9,1,1.1,1.6c0.8,1.9,0.5,4.2-1.1,5.8
					c-2,2-5.1,2-7.2,0.2C608.2,261.8,608.2,261.7,608.1,261.7z"/>
				
					<linearGradient id="SVGID_32_" gradientUnits="userSpaceOnUse" x1="575.6293" y1="169.054" x2="575.6293" y2="166.0446" gradientTransform="matrix(-0.7071 0.7071 -0.7071 -0.7071 1139.4491 -28.4469)">
					<stop  offset="0" style="stop-color:#EAE3CC"/>
					<stop  offset="1" style="stop-color:#FFFFFF"/>
				</linearGradient>
				<path class="st31" d="M612.1,261.9c0.6,0.6,1.9,0.3,2.9-0.7c1-1,1.3-2.3,0.7-2.9c-0.6-0.6-1.9-0.3-2.9,0.7
					C611.8,259.9,611.5,261.2,612.1,261.9z"/>
				<path class="st15" d="M608.1,261.7c-2-2-2-5.4,0-7.4c2.1-2.1,5.4-2.1,7.4,0c0.5,0.5,0.9,1,1.1,1.6c-2.2-0.5-6.9-0.8-8.3,6
					C608.2,261.8,608.2,261.7,608.1,261.7z"/>
			</g>
			<g>
				
					<linearGradient id="SVGID_33_" gradientUnits="userSpaceOnUse" x1="603.5646" y1="346.1468" x2="603.5646" y2="206.8665" gradientTransform="matrix(-0.7071 0.7071 -0.7071 -0.7071 1139.4491 -28.4469)">
					<stop  offset="0" style="stop-color:#AA2B97;stop-opacity:0"/>
					<stop  offset="0.4774" style="stop-color:#AA2B97;stop-opacity:0.3"/>
					<stop  offset="1" style="stop-color:#EBDE50;stop-opacity:0.5"/>
				</linearGradient>
				<path class="st32" d="M462.4,150.4L462.4,150.4c1.2-1.2,3-1.2,4.2,0l102.6,98c1.2,1.2,1.2,3,0,4.2l0,0c-1.2,1.2-3,1.2-4.2,0
					l-102.6-98C461.3,153.4,461.3,151.5,462.4,150.4z"/>
				
					<linearGradient id="SVGID_34_" gradientUnits="userSpaceOnUse" x1="601.9322" y1="210.148" x2="601.9322" y2="205.2598" gradientTransform="matrix(-0.7071 0.7071 -0.7071 -0.7071 1139.4491 -28.4469)">
					<stop  offset="0" style="stop-color:#FF9249"/>
					<stop  offset="1" style="stop-color:#FFDB49"/>
				</linearGradient>
				<path class="st33" d="M565.1,252.1c-1-1-1-2.7,0-3.7c1-1,2.7-1,3.7,0c0.2,0.2,0.4,0.5,0.5,0.8c0.4,0.9,0.2,2.1-0.5,2.9
					c-1,1-2.5,1-3.5,0.1C565.2,252.2,565.1,252.1,565.1,252.1z"/>
				
					<linearGradient id="SVGID_35_" gradientUnits="userSpaceOnUse" x1="601.9336" y1="207.0108" x2="601.9336" y2="205.5237" gradientTransform="matrix(-0.7071 0.7071 -0.7071 -0.7071 1139.4491 -28.4469)">
					<stop  offset="0" style="stop-color:#EAE3CC"/>
					<stop  offset="1" style="stop-color:#FFFFFF"/>
				</linearGradient>
				<path class="st34" d="M567.1,252.2c0.3,0.3,1,0.2,1.4-0.3c0.5-0.5,0.6-1.1,0.3-1.4c-0.3-0.3-1-0.2-1.4,0.3
					C566.9,251.2,566.8,251.9,567.1,252.2z"/>
				<path class="st15" d="M565.1,252.1c-1-1-1-2.7,0-3.7c1-1,2.7-1,3.7,0c0.2,0.2,0.4,0.5,0.5,0.8c-1.1-0.3-3.4-0.4-4.1,3
					C565.2,252.2,565.1,252.1,565.1,252.1z"/>
			</g>
			<g>
				
					<linearGradient id="SVGID_36_" gradientUnits="userSpaceOnUse" x1="944.2968" y1="623.0139" x2="944.2968" y2="483.7336" gradientTransform="matrix(-0.7071 0.7071 -0.7071 -0.7071 1139.4491 -28.4469)">
					<stop  offset="0" style="stop-color:#AA2B97;stop-opacity:0"/>
					<stop  offset="0.4774" style="stop-color:#AA2B97;stop-opacity:0.3"/>
					<stop  offset="1" style="stop-color:#EBDE50;stop-opacity:0.5"/>
				</linearGradient>
				<path class="st35" d="M25.7,195.5L25.7,195.5c1.2-1.2,3-1.2,4.2,0l102.6,98c1.2,1.2,1.2,3,0,4.2l0,0c-1.2,1.2-3,1.2-4.2,0
					l-102.6-98C24.6,198.6,24.6,196.7,25.7,195.5z"/>
				
					<linearGradient id="SVGID_37_" gradientUnits="userSpaceOnUse" x1="942.6644" y1="487.0152" x2="942.6644" y2="482.1269" gradientTransform="matrix(-0.7071 0.7071 -0.7071 -0.7071 1139.4491 -28.4469)">
					<stop  offset="0" style="stop-color:#FF9249"/>
					<stop  offset="1" style="stop-color:#FFDB49"/>
				</linearGradient>
				<path class="st36" d="M128.4,297.3c-1-1-1-2.7,0-3.7c1-1,2.7-1,3.7,0c0.2,0.2,0.4,0.5,0.5,0.8c0.4,0.9,0.2,2.1-0.5,2.9
					c-1,1-2.5,1-3.5,0.1C128.4,297.3,128.4,297.3,128.4,297.3z"/>
				
					<linearGradient id="SVGID_38_" gradientUnits="userSpaceOnUse" x1="942.6658" y1="483.878" x2="942.6658" y2="482.3908" gradientTransform="matrix(-0.7071 0.7071 -0.7071 -0.7071 1139.4491 -28.4469)">
					<stop  offset="0" style="stop-color:#EAE3CC"/>
					<stop  offset="1" style="stop-color:#FFFFFF"/>
				</linearGradient>
				<path class="st37" d="M130.4,297.4c0.3,0.3,1,0.2,1.4-0.3c0.5-0.5,0.6-1.1,0.3-1.4c-0.3-0.3-1-0.2-1.4,0.3
					C130.2,296.4,130.1,297,130.4,297.4z"/>
				<path class="st15" d="M128.4,297.3c-1-1-1-2.7,0-3.7c1-1,2.7-1,3.7,0c0.2,0.2,0.4,0.5,0.5,0.8c-1.1-0.3-3.4-0.4-4.1,3
					C128.4,297.3,128.4,297.3,128.4,297.3z"/>
			</g>
			<g>
				
					<linearGradient id="SVGID_39_" gradientUnits="userSpaceOnUse" x1="558.9598" y1="204.7787" x2="558.9598" y2="65.4985" gradientTransform="matrix(-0.7071 0.7071 -0.7071 -0.7071 1139.4491 -28.4469)">
					<stop  offset="0" style="stop-color:#AA2B97;stop-opacity:0"/>
					<stop  offset="0.4774" style="stop-color:#AA2B97;stop-opacity:0.3"/>
					<stop  offset="1" style="stop-color:#EBDE50;stop-opacity:0.5"/>
				</linearGradient>
				<path class="st38" d="M593.9,218.8L593.9,218.8c1.2-1.2,3-1.2,4.2,0l102.6,98c1.2,1.2,1.2,3,0,4.2l0,0c-1.2,1.2-3,1.2-4.2,0
					l-102.6-98C592.8,221.8,592.8,220,593.9,218.8z"/>
				
					<linearGradient id="SVGID_40_" gradientUnits="userSpaceOnUse" x1="557.3274" y1="68.78" x2="557.3274" y2="63.8918" gradientTransform="matrix(-0.7071 0.7071 -0.7071 -0.7071 1139.4491 -28.4469)">
					<stop  offset="0" style="stop-color:#FF9249"/>
					<stop  offset="1" style="stop-color:#FFDB49"/>
				</linearGradient>
				<path class="st39" d="M696.6,320.5c-1-1-1-2.7,0-3.7c1-1,2.7-1,3.7,0c0.2,0.2,0.4,0.5,0.5,0.8c0.4,0.9,0.2,2.1-0.5,2.9
					c-1,1-2.5,1-3.5,0.1C696.7,320.6,696.6,320.6,696.6,320.5z"/>
				
					<linearGradient id="SVGID_41_" gradientUnits="userSpaceOnUse" x1="557.3288" y1="65.6428" x2="557.3288" y2="64.1557" gradientTransform="matrix(-0.7071 0.7071 -0.7071 -0.7071 1139.4491 -28.4469)">
					<stop  offset="0" style="stop-color:#EAE3CC"/>
					<stop  offset="1" style="stop-color:#FFFFFF"/>
				</linearGradient>
				<path class="st40" d="M698.6,320.6c0.3,0.3,1,0.2,1.4-0.3c0.5-0.5,0.6-1.1,0.3-1.4c-0.3-0.3-1-0.2-1.4,0.3
					C698.4,319.7,698.3,320.3,698.6,320.6z"/>
				<path class="st15" d="M696.6,320.5c-1-1-1-2.7,0-3.7c1-1,2.7-1,3.7,0c0.2,0.2,0.4,0.5,0.5,0.8c-1.1-0.3-3.4-0.4-4.1,3
					C696.7,320.6,696.6,320.6,696.6,320.5z"/>
			</g>
			<g>
				
					<linearGradient id="SVGID_42_" gradientUnits="userSpaceOnUse" x1="923.7898" y1="548.4751" x2="923.7898" y2="461.0146" gradientTransform="matrix(-0.7071 0.7071 -0.7071 -0.7071 1139.4491 -28.4469)">
					<stop  offset="0" style="stop-color:#AA2B97;stop-opacity:0"/>
					<stop  offset="0.4774" style="stop-color:#AA2B97;stop-opacity:0.3"/>
					<stop  offset="1" style="stop-color:#EBDE50;stop-opacity:0.5"/>
				</linearGradient>
				<path class="st41" d="M95,234.9L95,234.9c0.7-0.7,1.9-0.7,2.6,0l64.4,61.5c0.7,0.7,0.7,1.9,0,2.6l0,0c-0.7,0.7-1.9,0.7-2.6,0
					L95,237.6C94.2,236.8,94.2,235.7,95,234.9z"/>
				
					<linearGradient id="SVGID_43_" gradientUnits="userSpaceOnUse" x1="922.7648" y1="463.0752" x2="922.7648" y2="460.0057" gradientTransform="matrix(-0.7071 0.7071 -0.7071 -0.7071 1139.4491 -28.4469)">
					<stop  offset="0" style="stop-color:#FF9249"/>
					<stop  offset="1" style="stop-color:#FFDB49"/>
				</linearGradient>
				<path class="st42" d="M159.4,298.8c-0.6-0.6-0.6-1.7,0-2.3c0.6-0.6,1.7-0.6,2.3,0c0.2,0.2,0.3,0.3,0.3,0.5
					c0.3,0.6,0.1,1.3-0.3,1.8C161.1,299.4,160.1,299.4,159.4,298.8C159.5,298.9,159.4,298.8,159.4,298.8z"/>
				
					<linearGradient id="SVGID_44_" gradientUnits="userSpaceOnUse" x1="922.7656" y1="461.1052" x2="922.7656" y2="460.1714" gradientTransform="matrix(-0.7071 0.7071 -0.7071 -0.7071 1139.4491 -28.4469)">
					<stop  offset="0" style="stop-color:#EAE3CC"/>
					<stop  offset="1" style="stop-color:#FFFFFF"/>
				</linearGradient>
				<path class="st43" d="M160.7,298.9c0.2,0.2,0.6,0.1,0.9-0.2c0.3-0.3,0.4-0.7,0.2-0.9c-0.2-0.2-0.6-0.1-0.9,0.2
					C160.6,298.3,160.5,298.7,160.7,298.9z"/>
				<path class="st15" d="M159.4,298.8c-0.6-0.6-0.6-1.7,0-2.3c0.6-0.6,1.7-0.6,2.3,0c0.2,0.2,0.3,0.3,0.3,0.5
					C161.4,296.8,159.9,296.8,159.4,298.8C159.5,298.9,159.4,298.8,159.4,298.8z"/>
			</g>
			<g>
				
					<linearGradient id="SVGID_45_" gradientUnits="userSpaceOnUse" x1="775.2192" y1="638.0244" x2="775.2192" y2="550.5638" gradientTransform="matrix(-0.7071 0.7071 -0.7071 -0.7071 1139.4491 -28.4469)">
					<stop  offset="0" style="stop-color:#AA2B97;stop-opacity:0"/>
					<stop  offset="0.4774" style="stop-color:#AA2B97;stop-opacity:0.3"/>
					<stop  offset="1" style="stop-color:#EBDE50;stop-opacity:0.5"/>
				</linearGradient>
				<path class="st44" d="M136.7,66.6L136.7,66.6c0.7-0.7,1.9-0.7,2.6,0l64.4,61.5c0.7,0.7,0.7,1.9,0,2.6l0,0
					c-0.7,0.7-1.9,0.7-2.6,0l-64.4-61.5C136,68.5,136,67.3,136.7,66.6z"/>
				
					<linearGradient id="SVGID_46_" gradientUnits="userSpaceOnUse" x1="774.1942" y1="552.6245" x2="774.1942" y2="549.5549" gradientTransform="matrix(-0.7071 0.7071 -0.7071 -0.7071 1139.4491 -28.4469)">
					<stop  offset="0" style="stop-color:#FF9249"/>
					<stop  offset="1" style="stop-color:#FFDB49"/>
				</linearGradient>
				<path class="st45" d="M201.2,130.4c-0.6-0.6-0.6-1.7,0-2.3c0.6-0.6,1.7-0.6,2.3,0c0.2,0.2,0.3,0.3,0.3,0.5
					c0.3,0.6,0.1,1.3-0.3,1.8C202.9,131,201.9,131.1,201.2,130.4C201.2,130.5,201.2,130.5,201.2,130.4z"/>
				
					<linearGradient id="SVGID_47_" gradientUnits="userSpaceOnUse" x1="774.1951" y1="550.6545" x2="774.1951" y2="549.7206" gradientTransform="matrix(-0.7071 0.7071 -0.7071 -0.7071 1139.4491 -28.4469)">
					<stop  offset="0" style="stop-color:#EAE3CC"/>
					<stop  offset="1" style="stop-color:#FFFFFF"/>
				</linearGradient>
				<path class="st46" d="M202.4,130.5c0.2,0.2,0.6,0.1,0.9-0.2c0.3-0.3,0.4-0.7,0.2-0.9c-0.2-0.2-0.6-0.1-0.9,0.2
					C202.3,129.9,202.2,130.3,202.4,130.5z"/>
				<path class="st15" d="M201.2,130.4c-0.6-0.6-0.6-1.7,0-2.3c0.6-0.6,1.7-0.6,2.3,0c0.2,0.2,0.3,0.3,0.3,0.5
					C203.1,128.5,201.7,128.4,201.2,130.4C201.2,130.5,201.2,130.5,201.2,130.4z"/>
			</g>
			<g>
				
					<linearGradient id="SVGID_48_" gradientUnits="userSpaceOnUse" x1="734.2201" y1="183.652" x2="734.2201" y2="96.1915" gradientTransform="matrix(-0.7071 0.7071 -0.7071 -0.7071 1139.4491 -28.4469)">
					<stop  offset="0" style="stop-color:#AA2B97;stop-opacity:0"/>
					<stop  offset="0.4774" style="stop-color:#AA2B97;stop-opacity:0.3"/>
					<stop  offset="1" style="stop-color:#EBDE50;stop-opacity:0.5"/>
				</linearGradient>
				<path class="st47" d="M487,358.9L487,358.9c0.7-0.7,1.9-0.7,2.6,0l64.4,61.5c0.7,0.7,0.7,1.9,0,2.6l0,0c-0.7,0.7-1.9,0.7-2.6,0
					L487,361.5C486.2,360.8,486.2,359.6,487,358.9z"/>
				
					<linearGradient id="SVGID_49_" gradientUnits="userSpaceOnUse" x1="733.1951" y1="98.2521" x2="733.1951" y2="95.1826" gradientTransform="matrix(-0.7071 0.7071 -0.7071 -0.7071 1139.4491 -28.4469)">
					<stop  offset="0" style="stop-color:#FF9249"/>
					<stop  offset="1" style="stop-color:#FFDB49"/>
				</linearGradient>
				<path class="st48" d="M551.4,422.7c-0.6-0.6-0.6-1.7,0-2.3c0.6-0.6,1.7-0.6,2.3,0c0.2,0.2,0.3,0.3,0.3,0.5
					c0.3,0.6,0.1,1.3-0.3,1.8C553.1,423.3,552.2,423.4,551.4,422.7C551.5,422.8,551.5,422.8,551.4,422.7z"/>
				
					<linearGradient id="SVGID_50_" gradientUnits="userSpaceOnUse" x1="733.196" y1="96.2822" x2="733.196" y2="95.3483" gradientTransform="matrix(-0.7071 0.7071 -0.7071 -0.7071 1139.4491 -28.4469)">
					<stop  offset="0" style="stop-color:#EAE3CC"/>
					<stop  offset="1" style="stop-color:#FFFFFF"/>
				</linearGradient>
				<path class="st49" d="M552.7,422.8c0.2,0.2,0.6,0.1,0.9-0.2s0.4-0.7,0.2-0.9c-0.2-0.2-0.6-0.1-0.9,0.2
					C552.6,422.2,552.5,422.6,552.7,422.8z"/>
				<path class="st15" d="M551.4,422.7c-0.6-0.6-0.6-1.7,0-2.3c0.6-0.6,1.7-0.6,2.3,0c0.2,0.2,0.3,0.3,0.3,0.5
					C553.4,420.8,551.9,420.7,551.4,422.7C551.5,422.8,551.5,422.8,551.4,422.7z"/>
			</g>
			<g>
				
					<linearGradient id="SVGID_51_" gradientUnits="userSpaceOnUse" x1="753.2661" y1="334.3571" x2="753.2661" y2="149.7259" gradientTransform="matrix(-0.7071 0.7071 -0.7071 -0.7071 1139.4491 -28.4469)">
					<stop  offset="0" style="stop-color:#AA2B97;stop-opacity:0"/>
					<stop  offset="0.4774" style="stop-color:#AA2B97;stop-opacity:0.3"/>
					<stop  offset="1" style="stop-color:#EBDE50;stop-opacity:0.5"/>
				</linearGradient>
				<path class="st50" d="M364.6,262L364.6,262c4-4,10.4-4,14.4,0l124.1,124.1c4,4,4,10.4,0,14.4v0c-4,4-10.4,4-14.4,0L364.6,276.4
					C360.7,272.4,360.7,266,364.6,262z"/>
				
					<linearGradient id="SVGID_52_" gradientUnits="userSpaceOnUse" x1="753.2612" y1="165.8295" x2="753.2612" y2="149.0441" gradientTransform="matrix(-0.7071 0.7071 -0.7071 -0.7071 1139.4491 -28.4469)">
					<stop  offset="0" style="stop-color:#FF9249"/>
					<stop  offset="1" style="stop-color:#FFDB49"/>
				</linearGradient>
				<path class="st51" d="M489,399c-3.5-3.5-3.5-9.1,0-12.6c3.5-3.5,9.1-3.5,12.6,0c0.8,0.8,1.5,1.8,1.9,2.8
					c1.4,3.2,0.8,7.2-1.9,9.8c-3.3,3.3-8.7,3.5-12.2,0.4C489.3,399.3,489.2,399.1,489,399z"/>
				
					<linearGradient id="SVGID_53_" gradientUnits="userSpaceOnUse" x1="753.2661" y1="155.057" x2="753.2661" y2="149.9505" gradientTransform="matrix(-0.7071 0.7071 -0.7071 -0.7071 1139.4491 -28.4469)">
					<stop  offset="0" style="stop-color:#EAE3CC"/>
					<stop  offset="1" style="stop-color:#FFFFFF"/>
				</linearGradient>
				<path class="st52" d="M495.9,399.3c1.1,1.1,3.3,0.6,4.9-1.1c1.7-1.7,2.2-3.9,1.1-4.9c-1.1-1.1-3.3-0.6-4.9,1.1
					C495.3,396.1,494.8,398.3,495.9,399.3z"/>
				<path class="st15" d="M489,399c-3.5-3.5-3.5-9.1,0-12.6c3.5-3.5,9.1-3.5,12.6,0c0.8,0.8,1.5,1.8,1.9,2.8
					c-3.7-0.9-11.7-1.3-14,10.2C489.3,399.3,489.2,399.1,489,399z"/>
			</g>
			<g>
				<g>
					
						<linearGradient id="SVGID_54_" gradientUnits="userSpaceOnUse" x1="483.0708" y1="118.6945" x2="454.1403" y2="-10.9936" gradientTransform="matrix(0.9632 -0.2689 0.2689 0.9632 34.1188 115.5391)">
						<stop  offset="0" style="stop-color:#D52453"/>
						<stop  offset="1" style="stop-color:#9D159A"/>
					</linearGradient>
					<path class="st53" d="M615.3-101.4l0.2,0.8c1.1,4,2.1,8.1,2.9,12.1c1.3,6.5,2.3,13.1,2.8,19.6c0.4,4.6,0.6,9.1,0.6,13.7
						c0,7-0.3,13.9-1.1,20.7c-0.6,4.9-1.3,9.7-2.3,14.5c-1.5,7.5-3.5,14.9-6,22.1c-1.8,5.3-3.9,10.5-6.2,15.6
						c-3.8,8.4-8.3,16.4-13.4,24.1c-4.1,6.1-8.5,12-13.3,17.6c-9.7,11.2-20.9,21.2-33.3,29.7c-15.2,10.3-32.2,18.4-50.9,23.6
						c-18.6,5.2-37.4,7.1-55.8,6.2c-14.9-0.8-29.4-3.5-43.4-8c-0.2-0.1-0.3-0.1-0.5-0.2c-7-2.3-13.9-5-20.5-8.1
						c-8.3-3.9-16.3-8.5-24-13.7c-4.6-3.1-9.1-6.5-13.4-10.1c-5.8-4.9-11.4-10.1-16.5-15.8c-3.3-3.6-6.4-7.3-9.4-11.2
						c-4.2-5.4-8.1-11.1-11.7-17.1c-2.3-3.9-4.5-7.9-6.5-12c-2.9-5.9-5.5-11.9-7.7-18.2c-1.4-3.9-2.7-7.9-3.8-11.9L282-8.3
						c-1.8-6.4-3.1-12.8-4.1-19.2c-0.7-4.5-1.2-8.9-1.6-13.4c-6.2-80.7,45.1-157.1,126-179.7c26.7-7.5,53.7-8.2,79.2-3.3
						c51.7,10,97.3,43.4,121.7,91.8c2,4,3.9,8.1,5.6,12.3C611.3-113.9,613.5-107.7,615.3-101.4z"/>
					
						<linearGradient id="SVGID_55_" gradientUnits="userSpaceOnUse" x1="453.6896" y1="-35.448" x2="446.3855" y2="-68.1903" gradientTransform="matrix(0.9632 -0.2689 0.2689 0.9632 34.1188 115.5391)">
						<stop  offset="1.394260e-02" style="stop-color:#BDE350"/>
						<stop  offset="1" style="stop-color:#DAFFAF"/>
					</linearGradient>
					<path class="st54" d="M608.8-119.9l-331,92.4c-0.7-4.5-1.2-8.9-1.6-13.4l326.9-91.3C605.2-128.2,607.1-124.1,608.8-119.9z"/>
					
						<linearGradient id="SVGID_56_" gradientUnits="userSpaceOnUse" x1="454.9402" y1="-2.5942" x2="447.5622" y2="-35.6679" gradientTransform="matrix(0.9632 -0.2689 0.2689 0.9632 34.1188 115.5391)">
						<stop  offset="1.394260e-02" style="stop-color:#BDE350"/>
						<stop  offset="1" style="stop-color:#DAFFAF"/>
					</linearGradient>
					<path class="st55" d="M615.3-101.4l0.2,0.8c1.1,4,2.1,8.1,2.9,12.1L286,4.4c-1.4-3.9-2.7-7.9-3.8-11.9L282-8.3L615.3-101.4z"/>
					
						<linearGradient id="SVGID_57_" gradientUnits="userSpaceOnUse" x1="455.8277" y1="28.9102" x2="448.6057" y2="-3.4642" gradientTransform="matrix(0.9632 -0.2689 0.2689 0.9632 34.1188 115.5391)">
						<stop  offset="1.394260e-02" style="stop-color:#BDE350"/>
						<stop  offset="1" style="stop-color:#DAFFAF"/>
					</linearGradient>
					<path class="st56" d="M621.3-68.8c0.4,4.6,0.6,9.1,0.6,13.7L300.2,34.6c-2.3-3.9-4.5-7.9-6.5-12L621.3-68.8z"/>
					
						<linearGradient id="SVGID_58_" gradientUnits="userSpaceOnUse" x1="455.2651" y1="59.1328" x2="448.4507" y2="28.5853" gradientTransform="matrix(0.9632 -0.2689 0.2689 0.9632 34.1188 115.5391)">
						<stop  offset="1.394260e-02" style="stop-color:#BDE350"/>
						<stop  offset="1" style="stop-color:#DAFFAF"/>
					</linearGradient>
					<path class="st57" d="M620.8-34.5c-0.6,4.9-1.3,9.7-2.3,14.5L321.3,63c-3.3-3.6-6.4-7.3-9.4-11.2L620.8-34.5z"/>
					
						<linearGradient id="SVGID_59_" gradientUnits="userSpaceOnUse" x1="454.2234" y1="87.4046" x2="448.1307" y2="60.0924" gradientTransform="matrix(0.9632 -0.2689 0.2689 0.9632 34.1188 115.5391)">
						<stop  offset="1.394260e-02" style="stop-color:#BDE350"/>
						<stop  offset="1" style="stop-color:#DAFFAF"/>
					</linearGradient>
					<path class="st58" d="M612.5,2.1c-1.8,5.3-3.9,10.5-6.2,15.6L351.3,88.8c-4.6-3.1-9.1-6.5-13.4-10.1L612.5,2.1z"/>
					
						<linearGradient id="SVGID_60_" gradientUnits="userSpaceOnUse" x1="452.4501" y1="112.4422" x2="447.568" y2="90.557" gradientTransform="matrix(0.9632 -0.2689 0.2689 0.9632 34.1188 115.5391)">
						<stop  offset="1.394260e-02" style="stop-color:#BDE350"/>
						<stop  offset="1" style="stop-color:#DAFFAF"/>
					</linearGradient>
					<path class="st59" d="M592.9,41.8c-4.1,6.1-8.5,12-13.3,17.6l-183.9,51.3c-7-2.3-13.9-5-20.5-8.1L592.9,41.8z"/>
					
						<linearGradient id="SVGID_61_" gradientUnits="userSpaceOnUse" x1="447.8921" y1="124.9729" x2="445.7956" y2="115.5751" gradientTransform="matrix(0.9632 -0.2689 0.2689 0.9632 34.1188 115.5391)">
						<stop  offset="1.394260e-02" style="stop-color:#BDE350"/>
						<stop  offset="1" style="stop-color:#DAFFAF"/>
					</linearGradient>
					<path class="st60" d="M546.3,89c-15.2,10.3-32.2,18.4-50.9,23.6c-18.6,5.2-37.4,7.1-55.8,6.2L546.3,89z"/>
				</g>
				<path class="st15" d="M396.2,110.8c-0.2-0.1-0.3-0.1-0.5-0.2c-7-2.3-13.9-5-20.5-8.1c-8.3-3.9-16.3-8.5-24-13.7
					c-4.6-3.1-9.1-6.5-13.4-10.1c-5.8-4.9-11.4-10.1-16.5-15.8c-3.3-3.6-6.4-7.3-9.4-11.2c-4.2-5.4-8.1-11.1-11.7-17.1
					c-2.3-3.9-4.5-7.9-6.5-12c-2.9-5.9-5.5-11.9-7.7-18.2c-1.4-3.9-2.7-7.9-3.8-11.9L282-8.3c-1.8-6.4-3.1-12.8-4.1-19.2
					c-0.7-4.5-1.2-8.9-1.6-13.4c-6.2-80.7,45.1-157.1,126-179.7c26.7-7.5,53.7-8.2,79.2-3.3C279.4-122.4,351.5,40.4,396.2,110.8z"/>
			</g>
			<linearGradient id="SVGID_62_" gradientUnits="userSpaceOnUse" x1="602.9767" y1="362.5982" x2="673.6652" y2="362.5982">
				<stop  offset="1.394260e-02" style="stop-color:#BDE350"/>
				<stop  offset="1" style="stop-color:#DAFFAF"/>
			</linearGradient>
			<circle class="st61" cx="638.3" cy="362.6" r="35.3"/>
			<linearGradient id="SVGID_63_" gradientUnits="userSpaceOnUse" x1="611.5792" y1="362.5982" x2="665.0628" y2="362.5982">
				<stop  offset="0" style="stop-color:#472456"/>
				<stop  offset="1" style="stop-color:#591452"/>
			</linearGradient>
			<circle class="st62" cx="638.3" cy="362.6" r="26.7"/>
			<linearGradient id="SVGID_64_" gradientUnits="userSpaceOnUse" x1="616.5332" y1="362.5982" x2="660.1087" y2="362.5982">
				<stop  offset="0" style="stop-color:#390C41"/>
				<stop  offset="1" style="stop-color:#3A0045"/>
			</linearGradient>
			<circle class="st63" cx="638.3" cy="362.6" r="21.8"/>
			<linearGradient id="SVGID_65_" gradientUnits="userSpaceOnUse" x1="578.912" y1="403.3491" x2="590.1542" y2="386.3044">
				<stop  offset="1.450340e-02" style="stop-color:#9DD0F3"/>
				<stop  offset="1" style="stop-color:#877DE4"/>
			</linearGradient>
			<path class="st64" d="M593.5,396.3c0,3.3-1.6,6.2-4,8c-1.7,1.2-3.7,2-6,2c-5.5,0-10-4.5-10-10c0-3.4,1.7-6.4,4.3-8.2
				c1.6-1.1,3.6-1.8,5.7-1.8C589.1,386.3,593.5,390.8,593.5,396.3z"/>
			<linearGradient id="SVGID_66_" gradientUnits="userSpaceOnUse" x1="583.4605" y1="390.9292" x2="590.7833" y2="390.9292">
				<stop  offset="1.394260e-02" style="stop-color:#BDE350"/>
				<stop  offset="1" style="stop-color:#DAFFAF"/>
			</linearGradient>
			<path class="st65" d="M590.6,392.8c-0.6,1.1-2.7,1.2-4.6,0.2c-1.9-1-3-2.8-2.4-4c0.6-1.1,2.7-1.2,4.6-0.2
				C590.2,389.9,591.2,391.7,590.6,392.8z"/>
			<path class="st15" d="M589.5,404.3c-1.7,1.2-3.7,2-6,2c-5.5,0-10-4.5-10-10c0-3.4,1.7-6.4,4.3-8.2
				C577.5,393.5,579.4,400.4,589.5,404.3z"/>
			<g>
				
					<linearGradient id="SVGID_67_" gradientUnits="userSpaceOnUse" x1="630.2161" y1="415.6246" x2="637.466" y2="415.6246" gradientTransform="matrix(0.9501 -0.312 0.312 0.9501 -97.8134 218.5484)">
					<stop  offset="1.450340e-02" style="stop-color:#9DD0F3"/>
					<stop  offset="1" style="stop-color:#877DE4"/>
				</linearGradient>
				<path class="st66" d="M637.5,414.5c0.2,0.6,0.2,1.2,0.1,1.7c-0.2,1.3-1.1,2.4-2.4,2.8c-1.9,0.6-3.9-0.4-4.6-2.3
					c-0.4-1.3-0.1-2.7,0.8-3.6l0,0c0.4-0.4,0.9-0.8,1.5-1C634.8,411.6,636.9,412.6,637.5,414.5z"/>
				<path class="st15" d="M637.6,416.3c-0.2,1.3-1.1,2.4-2.4,2.8c-1.9,0.6-3.9-0.4-4.6-2.3c-0.4-1.3-0.1-2.7,0.8-3.6
					c0,1.4,0.7,2.9,1.9,3.5C634.7,417.4,636.3,416.9,637.6,416.3z"/>
			</g>
			<g>
				<path class="st67" d="M84,353.1c0,0.6-0.5,1.1-1.1,1.1c-0.6,0-1.1-0.5-1.1-1.1c0-0.6,0.5-1.1,1.1-1.1
					C83.5,352,84,352.5,84,353.1z"/>
				<path class="st67" d="M94.4,344c0,1.8-1.4,3.2-3.2,3.2S88,345.8,88,344c0-1.8,1.4-3.2,3.2-3.2S94.4,342.2,94.4,344z"/>
				<path class="st67" d="M107.5,360.5c0,1.2-1,2.1-2.1,2.1c-1.2,0-2.1-1-2.1-2.1c0-1.2,1-2.1,2.1-2.1
					C106.5,358.3,107.5,359.3,107.5,360.5z"/>
				<path class="st67" d="M53.9,302.7c0,0.6-0.5,1-1,1c-0.6,0-1-0.5-1-1c0-0.6,0.5-1,1-1C53.4,301.7,53.9,302.2,53.9,302.7z"/>
				<circle class="st67" cx="35.1" cy="359.4" r="1.1"/>
				<path class="st67" d="M64.6,278.6c0,0.6-0.5,1-1,1s-1-0.5-1-1s0.5-1,1-1S64.6,278,64.6,278.6z"/>
				<path class="st67" d="M28,287.7c0,0.4-0.3,0.8-0.8,0.8c-0.4,0-0.8-0.3-0.8-0.8c0-0.4,0.3-0.8,0.8-0.8
					C27.7,287,28,287.3,28,287.7z"/>
				<path class="st67" d="M279.7,460.8c0,0.6-0.5,1.2-1.2,1.2c-0.6,0-1.2-0.5-1.2-1.2c0-0.6,0.5-1.2,1.2-1.2
					C279.2,459.6,279.7,460.1,279.7,460.8z"/>
				<circle class="st67" cx="320.6" cy="394.3" r="0.9"/>
				<circle class="st67" cx="239.1" cy="475.6" r="1.5"/>
				<circle class="st67" cx="231.6" cy="472.4" r="0.4"/>
				<circle class="st67" cx="282.1" cy="448.4" r="0.6"/>
				<path class="st67" d="M275.6,440.9c0,0.5-0.4,0.8-0.8,0.8c-0.5,0-0.8-0.4-0.8-0.8c0-0.5,0.4-0.8,0.8-0.8
					C275.2,440.1,275.6,440.4,275.6,440.9z"/>
				<circle class="st67" cx="271.3" cy="453.5" r="1.4"/>
				<path class="st67" d="M342.5,490.2c0,0.4-0.3,0.8-0.8,0.8c-0.4,0-0.8-0.3-0.8-0.8s0.3-0.8,0.8-0.8
					C342.1,489.4,342.5,489.7,342.5,490.2z"/>
				<circle class="st67" cx="395.9" cy="446.4" r="1.7"/>
				<path class="st67" d="M375,433.4c0,0.5-0.4,0.9-0.9,0.9c-0.5,0-0.9-0.4-0.9-0.9c0-0.5,0.4-0.9,0.9-0.9
					C374.6,432.5,375,432.9,375,433.4z"/>
				<path class="st67" d="M366.1,446.4c0,0.8-0.6,1.4-1.4,1.4c-0.8,0-1.4-0.6-1.4-1.4c0-0.8,0.6-1.4,1.4-1.4
					C365.5,445,366.1,445.7,366.1,446.4z"/>
				<path class="st67" d="M304,432.5c0,0.8-0.7,1.5-1.5,1.5s-1.5-0.7-1.5-1.5s0.7-1.5,1.5-1.5S304,431.7,304,432.5z"/>
				<circle class="st67" cx="276.1" cy="391.5" r="0.5"/>
				<path class="st67" d="M283.6,384.3c0,0.3-0.2,0.5-0.5,0.5s-0.5-0.2-0.5-0.5c0-0.3,0.2-0.5,0.5-0.5S283.6,384,283.6,384.3z"/>
				<circle class="st67" cx="264.2" cy="417.2" r="1.1"/>
				<path class="st67" d="M170,321.9c0,0.8-0.6,1.4-1.4,1.4c-0.8,0-1.4-0.6-1.4-1.4c0-0.8,0.6-1.4,1.4-1.4
					C169.3,320.5,170,321.1,170,321.9z"/>
				<path class="st67" d="M177.9,269.3c0,0.1-0.1,0.2-0.2,0.2c-0.1,0-0.2-0.1-0.2-0.2s0.1-0.2,0.2-0.2
					C177.8,269.1,177.9,269.2,177.9,269.3z"/>
				<path class="st67" d="M189.1,326.8c0,0.3-0.2,0.5-0.5,0.5c-0.3,0-0.5-0.2-0.5-0.5c0-0.3,0.2-0.5,0.5-0.5
					C188.8,326.3,189.1,326.5,189.1,326.8z"/>
				<path class="st67" d="M184.2,321.2c0,0.4-0.3,0.7-0.7,0.7c-0.4,0-0.7-0.3-0.7-0.7s0.3-0.7,0.7-0.7
					C183.9,320.5,184.2,320.8,184.2,321.2z"/>
				<circle class="st67" cx="25.9" cy="198.7" r="1"/>
				<circle class="st67" cx="69.9" cy="85.3" r="1"/>
				<path class="st67" d="M50,98c0,0.4-0.3,0.6-0.6,0.6c-0.4,0-0.6-0.3-0.6-0.6s0.3-0.6,0.6-0.6C49.7,97.3,50,97.6,50,98z"/>
				<path class="st67" d="M64.6,108.3c0,0.3-0.2,0.5-0.5,0.5c-0.3,0-0.5-0.2-0.5-0.5c0-0.3,0.2-0.5,0.5-0.5
					C64.4,107.8,64.6,108,64.6,108.3z"/>
				<path class="st67" d="M62.9,85.5c0,0.1-0.1,0.1-0.1,0.1c-0.1,0-0.1-0.1-0.1-0.1c0-0.1,0.1-0.1,0.1-0.1
					C62.8,85.3,62.9,85.4,62.9,85.5z"/>
				<circle class="st67" cx="34.9" cy="109.2" r="0.9"/>
				<path class="st67" d="M71.5,47.3c0,0.2-0.1,0.3-0.3,0.3c-0.2,0-0.3-0.1-0.3-0.3c0-0.2,0.1-0.3,0.3-0.3
					C71.4,47,71.5,47.1,71.5,47.3z"/>
				<path class="st67" d="M28.4,56.4c0,0.7-0.6,1.2-1.2,1.2c-0.7,0-1.2-0.6-1.2-1.2c0-0.7,0.6-1.2,1.2-1.2
					C27.8,55.2,28.4,55.8,28.4,56.4z"/>
				<path class="st67" d="M168.3,45.2c0,0.3-0.3,0.6-0.6,0.6s-0.6-0.3-0.6-0.6c0-0.3,0.3-0.6,0.6-0.6S168.3,44.9,168.3,45.2z"/>
				<circle class="st67" cx="180.2" cy="46.4" r="0.6"/>
				<path class="st67" d="M157.5,38.5c0,0.5-0.4,1-1,1c-0.5,0-1-0.4-1-1c0-0.5,0.4-1,1-1C157,37.6,157.5,38,157.5,38.5z"/>
				<path class="st67" d="M168.3,66.6c0,0.3-0.3,0.6-0.6,0.6c-0.3,0-0.6-0.3-0.6-0.6c0-0.3,0.3-0.6,0.6-0.6
					C168,66,168.3,66.3,168.3,66.6z"/>
				<path class="st67" d="M179.1,32.1c0,0.4-0.3,0.8-0.8,0.8c-0.4,0-0.8-0.3-0.8-0.8c0-0.4,0.3-0.8,0.8-0.8
					C178.7,31.3,179.1,31.6,179.1,32.1z"/>
				<path class="st67" d="M313.2,109.5c0,0.4-0.3,0.7-0.7,0.7c-0.4,0-0.7-0.3-0.7-0.7c0-0.4,0.3-0.7,0.7-0.7
					C312.9,108.8,313.2,109.1,313.2,109.5z"/>
				<path class="st67" d="M298.9,87.7c0,0.7-0.6,1.3-1.3,1.3c-0.7,0-1.3-0.6-1.3-1.3c0-0.7,0.6-1.3,1.3-1.3
					C298.3,86.4,298.9,87,298.9,87.7z"/>
				<circle class="st67" cx="294.1" cy="149.1" r="0.4"/>
				<circle class="st67" cx="294.1" cy="126.5" r="0.4"/>
				<path class="st67" d="M282.9,113.9c0,1.8-1.5,3.3-3.3,3.3c-1.8,0-3.3-1.5-3.3-3.3c0-1.8,1.5-3.3,3.3-3.3
					C281.4,110.6,282.9,112.1,282.9,113.9z"/>
				<circle class="st67" cx="294.9" cy="108.8" r="0.5"/>
				<path class="st67" d="M289.9,120.1c0,0.6-0.5,1.1-1.1,1.1c-0.6,0-1.1-0.5-1.1-1.1c0-0.6,0.5-1.1,1.1-1.1
					C289.4,119,289.9,119.5,289.9,120.1z"/>
				<circle class="st67" cx="283.3" cy="103.6" r="0.4"/>
				<path class="st67" d="M255.8,119.5c0,0.3-0.2,0.5-0.5,0.5c-0.3,0-0.5-0.2-0.5-0.5c0-0.3,0.2-0.5,0.5-0.5
					C255.5,119,255.8,119.3,255.8,119.5z"/>
				<circle class="st67" cx="263.2" cy="157.3" r="0.9"/>
				<circle class="st67" cx="355.8" cy="127.1" r="0.6"/>
				<path class="st67" d="M251,61.9c0,0.6-0.5,1-1,1s-1-0.5-1-1c0-0.6,0.5-1,1-1S251,61.3,251,61.9z"/>
				<circle class="st67" cx="372.7" cy="230.2" r="0.9"/>
				<circle class="st67" cx="303.6" cy="220.6" r="1.1"/>
				<path class="st67" d="M280.6,263.8c0,0.3-0.2,0.5-0.5,0.5s-0.5-0.2-0.5-0.5s0.2-0.5,0.5-0.5S280.6,263.5,280.6,263.8z"/>
				<path class="st67" d="M251.4,219.7c0,0.1-0.1,0.2-0.2,0.2c-0.1,0-0.2-0.1-0.2-0.2c0-0.1,0.1-0.2,0.2-0.2
					C251.3,219.5,251.4,219.6,251.4,219.7z"/>
				<circle class="st67" cx="237.8" cy="220.8" r="0.9"/>
				<path class="st67" d="M229.7,248.8c0,0.6-0.5,1.1-1.1,1.1c-0.6,0-1.1-0.5-1.1-1.1c0-0.6,0.5-1.1,1.1-1.1
					C229.2,247.7,229.7,248.2,229.7,248.8z"/>
				<circle class="st67" cx="252.3" cy="230.2" r="0.9"/>
				<circle class="st67" cx="242.9" cy="239.8" r="0.7"/>
				<path class="st67" d="M239.1,228.2c0,0.6-0.5,1.1-1.1,1.1c-0.6,0-1.1-0.5-1.1-1.1s0.5-1.1,1.1-1.1
					C238.6,227.1,239.1,227.6,239.1,228.2z"/>
				<path class="st67" d="M167.1,255.1c0,1-0.8,1.8-1.8,1.8c-1,0-1.8-0.8-1.8-1.8c0-1,0.8-1.8,1.8-1.8
					C166.3,253.3,167.1,254.1,167.1,255.1z"/>
				<path class="st67" d="M478.1,261.9c0,0.6-0.5,1-1,1c-0.6,0-1-0.5-1-1s0.5-1,1-1C477.6,260.9,478.1,261.3,478.1,261.9z"/>
				<path class="st67" d="M333.7,434.8c0,0.4,0.3,0.7,0.7,0.7c0.4,0,0.7-0.3,0.7-0.7c0-0.4-0.3-0.7-0.7-0.7
					C334,434.1,333.7,434.4,333.7,434.8z"/>
				<circle class="st67" cx="319.6" cy="449" r="1"/>
				<circle class="st67" cx="612.9" cy="171.6" r="1.1"/>
				<circle class="st67" cx="603.5" cy="161.9" r="0.5"/>
				<path class="st67" d="M600.7,154.1c0,0.5-0.4,1-1,1s-1-0.4-1-1c0-0.5,0.4-1,1-1S600.7,153.5,600.7,154.1z"/>
				<circle class="st67" cx="448.9" cy="282.7" r="0.9"/>
				<path class="st67" d="M466.9,221.7c0,0.3-0.3,0.6-0.6,0.6s-0.6-0.3-0.6-0.6c0-0.3,0.3-0.6,0.6-0.6S466.9,221.4,466.9,221.7z"/>
				<path class="st67" d="M564.1,154.1c0,0.5-0.4,1-1,1c-0.5,0-1-0.4-1-1c0-0.5,0.4-1,1-1C563.6,153.1,564.1,153.5,564.1,154.1z"/>
				<circle class="st67" cx="535.1" cy="164" r="1.5"/>
				<circle class="st67" cx="520.9" cy="128.3" r="1.2"/>
				<circle class="st67" cx="443.3" cy="157.3" r="0.9"/>
				<circle class="st67" cx="511.8" cy="128.9" r="0.6"/>
				<path class="st67" d="M520.8,119.5c0,0.3-0.2,0.5-0.5,0.5s-0.5-0.2-0.5-0.5c0-0.3,0.2-0.5,0.5-0.5S520.8,119.3,520.8,119.5z"/>
				<path class="st67" d="M527.8,114.8c0,0.5-0.4,0.9-0.9,0.9c-0.5,0-0.9-0.4-0.9-0.9s0.4-0.9,0.9-0.9
					C527.4,113.9,527.8,114.3,527.8,114.8z"/>
				<path class="st67" d="M530.3,138.5c0,0.4-0.3,0.7-0.7,0.7c-0.4,0-0.7-0.3-0.7-0.7s0.3-0.7,0.7-0.7
					C530,137.7,530.3,138.1,530.3,138.5z"/>
				<path class="st67" d="M721.4,77.2c0,0.5-0.4,1-1,1c-0.5,0-1-0.4-1-1c0-0.5,0.4-1,1-1C721,76.2,721.4,76.6,721.4,77.2z"/>
				<path class="st67" d="M644.4,118.1c0,0.5-0.4,0.9-0.9,0.9c-0.5,0-0.9-0.4-0.9-0.9s0.4-0.9,0.9-0.9
					C644,117.2,644.4,117.6,644.4,118.1z"/>
				<circle class="st67" cx="658.2" cy="103.6" r="0.4"/>
				<circle class="st67" cx="654.9" cy="124.1" r="0.7"/>
				<circle class="st67" cx="659.5" cy="133.7" r="0.9"/>
				<path class="st67" d="M650.8,138.5c0,0.4-0.3,0.7-0.7,0.7s-0.7-0.3-0.7-0.7s0.3-0.7,0.7-0.7S650.8,138.1,650.8,138.5z"/>
				<path class="st67" d="M701.5,43.3c0,0.9-0.7,1.6-1.6,1.6c-0.9,0-1.6-0.7-1.6-1.6c0-0.9,0.7-1.6,1.6-1.6
					C700.8,41.8,701.5,42.5,701.5,43.3z"/>
				<path class="st67" d="M709.7,46.4c0,0.5-0.4,1-1,1c-0.5,0-1-0.4-1-1s0.4-1,1-1C709.3,45.4,709.7,45.9,709.7,46.4z"/>
				<circle class="st67" cx="687.6" cy="182.8" r="0.8"/>
				<path class="st67" d="M599.8,196.3c0,0.3-0.2,0.5-0.5,0.5s-0.5-0.2-0.5-0.5c0-0.3,0.2-0.5,0.5-0.5S599.8,196,599.8,196.3z"/>
				<circle class="st67" cx="582.6" cy="305" r="1"/>
				<path class="st67" d="M538.6,328.3c0,0.6-0.5,1-1,1c-0.6,0-1-0.5-1-1c0-0.6,0.5-1,1-1C538.2,327.3,538.6,327.7,538.6,328.3z"/>
				<path class="st67" d="M585.4,289.2c0,0.5-0.4,0.9-0.9,0.9c-0.5,0-0.9-0.4-0.9-0.9c0-0.5,0.4-0.9,0.9-0.9
					C585,288.3,585.4,288.7,585.4,289.2z"/>
				<path class="st67" d="M520.6,287c0,0.5-0.4,0.9-0.9,0.9s-0.9-0.4-0.9-0.9c0-0.5,0.4-0.9,0.9-0.9S520.6,286.5,520.6,287z"/>
				<path class="st67" d="M534,309.3c0,0.3-0.2,0.5-0.5,0.5c-0.3,0-0.5-0.2-0.5-0.5c0-0.3,0.2-0.5,0.5-0.5
					C533.8,308.8,534,309,534,309.3z"/>
				<circle class="st67" cx="593.2" cy="297.6" r="0.3"/>
				<path class="st67" d="M584.5,297.7c0,0.3-0.2,0.5-0.5,0.5c-0.3,0-0.5-0.2-0.5-0.5c0-0.3,0.2-0.5,0.5-0.5
					C584.3,297.3,584.5,297.5,584.5,297.7z"/>
				<path class="st67" d="M591.1,322.6c0,0.4-0.3,0.8-0.8,0.8c-0.4,0-0.8-0.3-0.8-0.8c0-0.4,0.3-0.8,0.8-0.8
					C590.7,321.8,591.1,322.2,591.1,322.6z"/>
				<path class="st67" d="M716.8,346.6c0,0.4-0.3,0.7-0.7,0.7c-0.4,0-0.7-0.3-0.7-0.7c0-0.4,0.3-0.7,0.7-0.7
					C716.5,346,716.8,346.3,716.8,346.6z"/>
				<circle class="st67" cx="717.6" cy="274.4" r="0.8"/>
				<path class="st67" d="M719.8,282.8c0,0.4-0.3,0.7-0.7,0.7c-0.4,0-0.7-0.3-0.7-0.7c0-0.4,0.3-0.7,0.7-0.7
					C719.5,282.1,719.8,282.4,719.8,282.8z"/>
				<circle class="st67" cx="727" cy="274.7" r="0.4"/>
				<circle class="st67" cx="652.8" cy="468.3" r="0.8"/>
				<path class="st67" d="M613.1,485.7c0,0.4-0.3,0.7-0.7,0.7c-0.4,0-0.7-0.3-0.7-0.7c0-0.4,0.3-0.7,0.7-0.7
					C612.7,484.9,613.1,485.3,613.1,485.7z"/>
				<circle class="st67" cx="612" cy="467.9" r="0.4"/>
				<path class="st67" d="M624.3,455.9c0,0.5-0.4,0.9-0.9,0.9c-0.5,0-0.9-0.4-0.9-0.9c0-0.5,0.4-0.9,0.9-0.9
					C623.9,455,624.3,455.4,624.3,455.9z"/>
				<circle class="st67" cx="631.1" cy="480.3" r="0.7"/>
				<path class="st67" d="M593.2,476.6c0,0.6-0.5,1.1-1.1,1.1c-0.6,0-1.1-0.5-1.1-1.1c0-0.6,0.5-1.1,1.1-1.1
					C592.7,475.6,593.2,476,593.2,476.6z"/>
				<path class="st67" d="M648.7,447.1c0,0.4-0.3,0.7-0.7,0.7c-0.4,0-0.7-0.3-0.7-0.7c0-0.4,0.3-0.7,0.7-0.7
					C648.4,446.4,648.7,446.8,648.7,447.1z"/>
				<path class="st67" d="M560.5,442.3c0,0.8-0.6,1.4-1.4,1.4c-0.8,0-1.4-0.6-1.4-1.4c0-0.8,0.6-1.4,1.4-1.4
					C559.9,440.9,560.5,441.5,560.5,442.3z"/>
				<path class="st67" d="M496.6,472.8c0,0.5-0.4,0.8-0.8,0.8c-0.5,0-0.8-0.4-0.8-0.8s0.4-0.8,0.8-0.8
					C496.2,472,496.6,472.3,496.6,472.8z"/>
				<path class="st67" d="M498.9,466c0,0.6-0.5,1.2-1.2,1.2c-0.6,0-1.2-0.5-1.2-1.2c0-0.6,0.5-1.2,1.2-1.2
					C498.4,464.8,498.9,465.3,498.9,466z"/>
				<path class="st67" d="M508,473.2c0,0.2-0.2,0.4-0.4,0.4s-0.4-0.2-0.4-0.4c0-0.2,0.2-0.4,0.4-0.4S508,473,508,473.2z"/>
				<path class="st67" d="M479.2,453.5c0,0.8-0.6,1.4-1.4,1.4s-1.4-0.6-1.4-1.4c0-0.8,0.6-1.4,1.4-1.4S479.2,452.8,479.2,453.5z"/>
				<path class="st67" d="M722.3,474.6c0,0.5-0.4,1-1,1c-0.5,0-1-0.4-1-1c0-0.5,0.4-1,1-1C721.8,473.6,722.3,474.1,722.3,474.6z"/>
				<path class="st67" d="M718.9,407.4c0,0.6-0.5,1.1-1.1,1.1c-0.6,0-1.1-0.5-1.1-1.1c0-0.6,0.5-1.1,1.1-1.1
					C718.5,406.3,718.9,406.8,718.9,407.4z"/>
				<path class="st67" d="M360.9,482c0,0.6-0.5,1-1,1c-0.6,0-1-0.5-1-1c0-0.6,0.5-1,1-1C360.5,481,360.9,481.4,360.9,482z"/>
				<path class="st67" d="M348.5,440.1c0,0.5-0.4,0.8-0.8,0.8c-0.5,0-0.8-0.4-0.8-0.8c0-0.5,0.4-0.8,0.8-0.8
					C348.1,439.3,348.5,439.6,348.5,440.1z"/>
				<circle class="st67" cx="367.8" cy="434.8" r="0.5"/>
				<path class="st67" d="M374.6,422.5c0,0.2-0.1,0.3-0.3,0.3c-0.2,0-0.3-0.1-0.3-0.3c0-0.2,0.1-0.3,0.3-0.3
					C374.5,422.2,374.6,422.4,374.6,422.5z"/>
				<circle class="st67" cx="407.9" cy="416.4" r="0.8"/>
				<circle class="st67" cx="422.9" cy="427.4" r="0.6"/>
				<circle class="st67" cx="431" cy="479.9" r="0.3"/>
				<circle class="st67" cx="438.4" cy="455.4" r="0.5"/>
				<circle class="st67" cx="477.1" cy="283.4" r="0.7"/>
				<path class="st67" d="M482.5,275c0,0.4-0.3,0.7-0.7,0.7c-0.4,0-0.7-0.3-0.7-0.7c0-0.4,0.3-0.7,0.7-0.7
					C482.2,274.3,482.5,274.6,482.5,275z"/>
				<path class="st67" d="M480.2,310.2c0,0.5-0.4,1-1,1c-0.5,0-1-0.4-1-1s0.4-1,1-1C479.8,309.3,480.2,309.7,480.2,310.2z"/>
				<path class="st67" d="M517,275.1c0,0.6-0.5,1.2-1.2,1.2c-0.6,0-1.2-0.5-1.2-1.2c0-0.6,0.5-1.2,1.2-1.2
					C516.4,274,517,274.5,517,275.1z"/>
				<circle class="st67" cx="468.9" cy="280.9" r="0.9"/>
				<path class="st67" d="M490.1,235.6c0,0.7-0.6,1.3-1.3,1.3c-0.7,0-1.3-0.6-1.3-1.3c0-0.7,0.6-1.3,1.3-1.3
					C489.5,234.4,490.1,235,490.1,235.6z"/>
				<circle class="st67" cx="341.5" cy="329.2" r="1"/>
				<path class="st67" d="M693.2,77.7c0,0.3-0.2,0.5-0.5,0.5c-0.3,0-0.5-0.2-0.5-0.5c0-0.3,0.2-0.5,0.5-0.5
					C692.9,77.2,693.2,77.4,693.2,77.7z"/>
				<circle class="st67" cx="727.9" cy="27.5" r="1"/>
				<path class="st67" d="M629.9,35.7c0,0.6-0.5,1.1-1.1,1.1s-1.1-0.5-1.1-1.1c0-0.6,0.5-1.1,1.1-1.1S629.9,35.1,629.9,35.7z"/>
				<path class="st67" d="M637.8,29.4c0,0.5-0.4,0.9-0.9,0.9c-0.5,0-0.9-0.4-0.9-0.9s0.4-0.9,0.9-0.9
					C637.4,28.4,637.8,28.9,637.8,29.4z"/>
				<path class="st67" d="M637.8,41.7c0,0.5-0.4,0.9-0.9,0.9c-0.5,0-0.9-0.4-0.9-0.9c0-0.5,0.4-0.9,0.9-0.9
					C637.4,40.8,637.8,41.2,637.8,41.7z"/>
				<path class="st67" d="M618.6,42.5c0,0.4-0.4,0.8-0.8,0.8S617,43,617,42.5c0-0.4,0.4-0.8,0.8-0.8S618.6,42.1,618.6,42.5z"/>
				<circle class="st67" cx="720.2" cy="106.7" r="0.7"/>
				<circle class="st67" cx="727.5" cy="73.3" r="0.5"/>
				<path class="st67" d="M718.2,84.4c0,0.4-0.3,0.7-0.7,0.7c-0.4,0-0.7-0.3-0.7-0.7s0.3-0.7,0.7-0.7
					C717.8,83.6,718.2,84,718.2,84.4z"/>
				<path class="st67" d="M728,81.3c0,0.3-0.2,0.5-0.5,0.5c-0.3,0-0.5-0.2-0.5-0.5c0-0.3,0.2-0.5,0.5-0.5
					C727.8,80.8,728,81,728,81.3z"/>
				<circle class="st67" cx="699.9" cy="421.8" r="0.4"/>
				<circle class="st67" cx="702.4" cy="410.8" r="0.9"/>
				<path class="st67" d="M712.1,420.8c0,0.4-0.4,0.8-0.8,0.8c-0.4,0-0.8-0.4-0.8-0.8c0-0.4,0.4-0.8,0.8-0.8
					C711.7,419.9,712.1,420.3,712.1,420.8z"/>
				<path class="st67" d="M713.1,395.8c0,0.3-0.2,0.5-0.5,0.5c-0.3,0-0.5-0.2-0.5-0.5c0-0.3,0.2-0.5,0.5-0.5
					C712.9,395.3,713.1,395.6,713.1,395.8z"/>
				<circle class="st67" cx="677.3" cy="411" r="1.1"/>
				<circle class="st67" cx="730.9" cy="456.5" r="0.2"/>
				<path class="st67" d="M700.3,482c0,0.6-0.5,1-1,1s-1-0.5-1-1c0-0.6,0.5-1,1-1S700.3,481.4,700.3,482z"/>
				<path class="st67" d="M292.4,270.4c0,0.3-0.2,0.5-0.5,0.5c-0.3,0-0.5-0.2-0.5-0.5c0-0.3,0.2-0.5,0.5-0.5
					C292.1,269.9,292.4,270.1,292.4,270.4z"/>
				<path class="st67" d="M293.4,261.4c0,0.3-0.2,0.5-0.5,0.5c-0.3,0-0.5-0.2-0.5-0.5c0-0.3,0.2-0.5,0.5-0.5
					C293.1,260.9,293.4,261.1,293.4,261.4z"/>
				<circle class="st67" cx="283.1" cy="276.8" r="0.5"/>
				<circle class="st67" cx="292.3" cy="290.7" r="0.5"/>
				<circle class="st67" cx="297.2" cy="274.7" r="0.4"/>
				<path class="st67" d="M265.2,307c0,0.6-0.5,1-1,1s-1-0.5-1-1c0-0.6,0.4-1,1-1S265.2,306.4,265.2,307z"/>
				<path class="st67" d="M388.3,237.7c0,0.4-0.3,0.8-0.8,0.8c-0.4,0-0.8-0.3-0.8-0.8c0-0.4,0.3-0.8,0.8-0.8
					C388,236.9,388.3,237.2,388.3,237.7z"/>
				<path class="st67" d="M354.3,263.6c0,0.4-0.3,0.7-0.7,0.7c-0.4,0-0.7-0.3-0.7-0.7c0-0.4,0.3-0.7,0.7-0.7
					C354,262.9,354.3,263.2,354.3,263.6z"/>
				<path class="st67" d="M372.7,321.7c0,0.2-0.2,0.4-0.4,0.4c-0.2,0-0.4-0.2-0.4-0.4c0-0.2,0.2-0.4,0.4-0.4
					C372.5,321.2,372.7,321.4,372.7,321.7z"/>
			</g>
		</g>
	</g>
</g>
</svg>
